<svg xmlns="http://www.w3.org/2000/svg" version="1.1" xmlns:xlink="http://www.w3.org/1999/xlink" xmlns:svgjs="http://svgjs.com/svgjs" width="40" height="40"><svg width="40" height="40" viewBox="0 0 40 40" fill="none" xmlns="http://www.w3.org/2000/svg">
<path fill-rule="evenodd" clip-rule="evenodd" d="M20 39C30.4934 39 39 30.4934 39 20C39 9.50659 30.4934 1 20 1C9.50659 1 1 9.50659 1 20C1 30.4934 9.50659 39 20 39Z" fill="#2BE080" stroke="black"></path>
<path fill-rule="evenodd" clip-rule="evenodd" d="M25.8664 23C25.5066 23 25.1799 23.1973 24.9727 23.4915C23.8966 25.0194 22.1368 26 20.1848 26C16.984 26 14.2998 23.3634 14.2998 20C14.2998 16.6366 16.984 14 20.1848 14C22.1368 14 23.8966 14.9806 24.9727 16.5085C25.1799 16.8027 25.5066 17 25.8664 17H29.3418C30.0039 17 30.483 16.3664 30.2296 15.7547C28.5857 11.7873 24.7074 9 20.1848 9C14.1732 9 9.2998 13.9249 9.2998 20C9.2998 26.0751 14.1732 31 20.1848 31C24.7074 31 28.5857 28.2127 30.2296 24.2453C30.483 23.6336 30.0039 23 29.3418 23H25.8664Z" fill="white"></path>
</svg><style>@media (prefers-color-scheme: light) { :root { filter: none; } }
</style></svg>